<svg viewBox="0 0 2789 1024" xmlns="http://www.w3.org/2000/svg" width="174.313" height="64"><path d="M1252.567 121.874C1208.398-15.543 1062.297.583 1062.297.583c32.574 51.82 69.89 131.265 89.338 213.507l100.948-92.216zm-96.941 234.77c-43.968-138.506-190.15-122.42-190.15-122.42 32.68 51.86 69.866 131.273 89.097 214.636l101.053-92.216zM2743.967.583h-600.869c-107.036 0-124.895 125.145-124.895 125.145h603.723c105.012 0 122.041-125.137 122.041-125.137m-626.235 385.402c17.36-19.9 40.855-41.403 79.227-64.826 39.807-24.318 80.372-36.655 120.622-36.655 83.75.025 149.915 53.796 188.803 101.48h158.139c96.836 0 120.695-125.185 120.695-125.185h-770.184c-91.861 0-122.54 125.186-122.54 125.186h225.238zm-985.207 77.09L871.124 750.472l112.091 71.575c165.275-211.637 149.302-358.964 149.302-358.964"/><path d="M2615.686 487.11c-56.869-18.657-93.45-24.543-116.656-56.448-26.994-37.114-126.669-181.659-287.066-83.678-120.267 73.494-78.34 122.477-212.378 184.884-134.015 62.456-134.2 143.594-87.08 189.512 47.063 45.96 209.46 73.672 318.285 42.79 108.826-30.913 153.423-68.269 151.39-140.674-1.894-67.261-115.598-127.21-179.965-27.785-13.07 25.85 6.434 39.557 6.434 39.557 3.201-37.71 25.48-26.987 26.23-26.608 21.003 11.869 40.21 32.413 15.924 63.915-42.734 55.264-162.042 46.008-183.191 20.577-20.456-24.761-33.526-80.17 45.04-131.322 78.469-51.175 168.669-115.22 296.233-58.053 98.32 44.08 141.788 92.853 147.625 136.853 5.862 44.128-26.14 83.476-78.638 108.487-104.722 49.934-196.14 60.529-354.392 84.484-158.276 23.987-336.306 124.13-360.423 183.4 0 0 140.377-138.247 468.056-134.022 327.59 4.192 492.938-112.56 504.057-231.505 8.732-94.336-60.408-144.98-119.494-164.363M793.235 240.6H603.401l20.06-115.01h189.932L793.235 240.6zm-40.718 232.77h-191.27a2151.605 2151.605 0 0021.642-115.937H772.82L752.526 473.37zM526.891 12.072l-64.721 357.23c-19.674 115.962-39.46 215.524-53.272 269.602-26.528 103.65-81.888 236.407-81.888 236.407s167.226-80.26 213.508-285.083h191.56l-9.748 55.643c-10.16 57.852-23.327 129.741-98.127 129.741h-50.28l-16.796 78.76s60.932 2.878 109.963 0c49.04-2.863 83.533-18.312 101.739-35.059 18.31-16.738 32.51-36.041 42.54-57.964 10.143-21.9 17.706-47.596 22.875-77.123L952.72 6.952l-425.83 5.12zm1187.781 319.859h-208.137l10.103-57.538h208.13l-10.088 57.538zm-24.97 142.368H1481.62l10.256-58.449h208.097l-10.272 58.457zm108.06 29.454l56.416-322.503h-197.825c22.995-34.324 39.782-60.505 50.151-78.453h115.543c88.709 0 103.029-102.214 103.029-102.214h-639.814l-63.133 360.52c-33.243 193.535-88.983 395.763-175.611 471.482 24.689-21.609 204.251-10.538 289.59-455.09l48.015-274.698h202.38a880.88 880.88 0 01-42.435 78.453h-66.157s-57.03 4.055-68.777 71.018c-11.7 66.923-55.167 315.11-55.167 315.11h161.598l-25.27 144.198c-4.402 21.326-20.173 33.792-47.603 37.493-25.108 1.46-64.214-.799-64.214-.799s13.732-13.949 29.406-65.148c16.287-53.232 8.466-89.5 8.466-89.5-100.352 111.14-185.368 165.453-185.368 165.453l72.874 68.454c28.422-20.262 52.7-47.918 68.994-73.034 3.048 38.057-12.07 106.818-12.07 106.818s102.698-.314 133.12-4.596c30.381-4.233 54.562-16.125 72.381-35.573 17.868-19.497 29.874-46.524 35.953-81.275l30.148-172.491h94.014c61.166 0 71.357-63.617 71.357-63.617z"/><path d="M1664.134 604.048c11.15 73.115 20.399 150.133 32.34 241.865l103.819-55.65c-20.359-165.904-136.16-186.215-136.16-186.215M280.052 345.968h-85.774l37.251-213.072h85.79l-37.267 213.072zm-56.408 322.576h-85.79L175.12 455.52h85.774l-37.251 213.024zm227.86-645.16H200.751c-68.689 0-81.033 70.786-81.033 70.786L0 778.112h263.66c48.756 0 65.261-54.208 65.261-54.208l122.581-700.52z"/></svg>